<svg width="305" height="116" xmlns="http://www.w3.org/2000/svg" xmlns:xlink="http://www.w3.org/1999/xlink" overflow="hidden"><defs><clipPath id="clip0"><rect x="229" y="257" width="305" height="116"/></clipPath></defs><g clip-path="url(#clip0)" transform="translate(-229 -257)"><path d="M230.5 266.375C230.5 262.578 233.578 259.5 237.375 259.5L525.625 259.5C529.422 259.5 532.5 262.578 532.5 266.375L532.5 365.625C532.5 369.422 529.422 372.5 525.625 372.5L237.375 372.5C233.578 372.5 230.5 369.422 230.5 365.625Z" stroke="#2F528F" stroke-width="1.33333" stroke-miterlimit="8" fill-rule="evenodd"/><path d="M248.5 331C248.5 317.469 259.469 306.5 273 306.5 286.531 306.5 297.5 317.469 297.5 331 297.5 344.531 286.531 355.5 273 355.5 259.469 355.5 248.5 344.531 248.5 331Z" stroke="#FFFFFF" stroke-width="1.33333" stroke-miterlimit="8" fill="#FFFFFF" fill-rule="evenodd"/><path d="M261.5 331C261.5 324.649 266.649 319.5 273 319.5 279.351 319.5 284.5 324.649 284.5 331 284.5 337.351 279.351 342.5 273 342.5 266.649 342.5 261.5 337.351 261.5 331Z" stroke="#000000" stroke-width="1.33333" stroke-miterlimit="8" fill-rule="evenodd"/><path d="M413.186 315.665C415.722 317.501 416.289 321.046 414.453 323.582 412.617 326.118 409.072 326.685 406.536 324.849 404 323.012 403.433 319.468 405.269 316.932 407.106 314.396 410.65 313.829 413.186 315.665Z" stroke="#FFFFFF" stroke-width="1.33333" stroke-miterlimit="8" fill="#FFFFFF" fill-rule="evenodd"/><path d="M442.249 314.636C444.784 316.473 445.352 320.017 443.515 322.553 441.679 325.089 438.134 325.656 435.598 323.82 433.062 321.983 432.495 318.439 434.332 315.903 436.168 313.367 439.713 312.8 442.249 314.636Z" stroke="#FFFFFF" stroke-width="1.33333" stroke-miterlimit="8" fill="#FFFFFF" fill-rule="evenodd"/><path d="M471.607 315.665C474.143 317.501 474.71 321.046 472.874 323.582 471.038 326.118 467.493 326.685 464.957 324.849 462.421 323.012 461.854 319.468 463.69 316.932 465.527 314.396 469.071 313.829 471.607 315.665Z" stroke="#FFFFFF" stroke-width="1.33333" stroke-miterlimit="8" fill="#FFFFFF" fill-rule="evenodd"/><path d="M500.669 315.665C503.205 317.502 503.772 321.046 501.936 323.582 500.1 326.118 496.555 326.685 494.019 324.849 491.483 323.012 490.916 319.468 492.753 316.932 494.589 314.396 498.133 313.829 500.669 315.665Z" stroke="#FFFFFF" stroke-width="1.33333" stroke-miterlimit="8" fill="#FFFFFF" fill-rule="evenodd"/><path d="M383.976 315.665C386.512 317.502 387.079 321.046 385.242 323.582 383.406 326.118 379.861 326.685 377.325 324.849 374.789 323.012 374.222 319.468 376.059 316.932 377.895 314.396 381.44 313.829 383.976 315.665Z" stroke="#FFFFFF" stroke-width="1.33333" stroke-miterlimit="8" fill="#FFFFFF" fill-rule="evenodd"/><path d="M399.781 342.625C402.317 344.461 402.884 348.006 401.048 350.542 399.212 353.078 395.667 353.645 393.131 351.808 390.595 349.972 390.028 346.427 391.864 343.891 393.701 341.355 397.245 340.788 399.781 342.625Z" stroke="#FFFFFF" stroke-width="1.33333" stroke-miterlimit="8" fill="#FFFFFF" fill-rule="evenodd"/><path d="M427.892 342.625C430.428 344.461 430.995 348.006 429.159 350.542 427.322 353.078 423.778 353.645 421.242 351.808 418.706 349.972 418.139 346.427 419.975 343.891 421.812 341.355 425.356 340.788 427.892 342.625Z" stroke="#FFFFFF" stroke-width="1.33333" stroke-miterlimit="8" fill="#FFFFFF" fill-rule="evenodd"/><path d="M458.259 342.625C460.795 344.461 461.362 348.006 459.526 350.542 457.689 353.078 454.145 353.645 451.609 351.808 449.073 349.972 448.506 346.427 450.342 343.891 452.179 341.355 455.723 340.788 458.259 342.625Z" stroke="#FFFFFF" stroke-width="1.33333" stroke-miterlimit="8" fill="#FFFFFF" fill-rule="evenodd"/><path d="M487.441 342.625C489.977 344.461 490.544 348.006 488.708 350.542 486.871 353.078 483.327 353.645 480.791 351.808 478.255 349.972 477.688 346.427 479.524 343.891 481.361 341.355 484.905 340.788 487.441 342.625Z" stroke="#FFFFFF" stroke-width="1.33333" stroke-miterlimit="8" fill="#FFFFFF" fill-rule="evenodd"/><path d="M370.166 342.625C372.702 344.461 373.269 348.006 371.433 350.542 369.596 353.078 366.052 353.645 363.516 351.808 360.98 349.972 360.413 346.427 362.249 343.891 364.086 341.355 367.63 340.788 370.166 342.625Z" stroke="#FFFFFF" stroke-width="1.33333" stroke-miterlimit="8" fill="#FFFFFF" fill-rule="evenodd"/></g></svg>